<svg xmlns="http://www.w3.org/2000/svg" viewBox="0 0 393.9 393.9"><defs><style>.cls-1{fill:#1d1d1b;}.cls-2{fill:#fff;stroke:#1d1d1b;stroke-miterlimit:10;}</style></defs><g id="Layer_2" data-name="Layer 2"><g id="Layer_2-2" data-name="Layer 2"><circle class="cls-1" cx="196.95" cy="196.95" r="196.95"/><polygon class="cls-2" points="297.7 257.23 307.14 297.74 263.9 311.96 297.7 257.23"/><polygon class="cls-2" points="173.54 141.57 266.41 137.34 313.74 236.11 298.87 241.36 173.54 141.57"/><polygon class="cls-2" points="299.99 105.14 267.47 129.29 198.97 132.41 299.99 105.14"/><path class="cls-2" d="M80.16,162.12c4.55-81.5,55.42-98.62,97.32-98.62a160.13,160.13,0,0,1,30.7,3L158.8,136.69l-7.84,133L100.17,313.3Z"/><polygon class="cls-2" points="216.48 68.62 304.81 95.56 172.35 131.32 216.48 68.62"/><polygon class="cls-2" points="159 269.18 166.26 145.98 294.13 247.8 253.23 314.03 159 269.18"/></g></g></svg>